<svg id="Layer_1" data-name="Layer 1" xmlns="http://www.w3.org/2000/svg" xmlns:xlink="http://www.w3.org/1999/xlink" viewBox="0 0 867.19 253.32"><defs><style>.cls-1{fill:url(#linear-gradient);}.cls-2{fill:url(#linear-gradient-2);}.cls-3{fill:url(#linear-gradient-3);}.cls-4{fill:url(#linear-gradient-4);}.cls-5{fill:url(#linear-gradient-5);}.cls-6{fill:url(#linear-gradient-6);}.cls-7{fill:url(#linear-gradient-7);}</style><linearGradient id="linear-gradient" x1="23" y1="157.07" x2="1015.06" y2="157.07" gradientUnits="userSpaceOnUse"><stop offset="0" stop-color="#ffe259"/><stop offset="1" stop-color="#ffa751"/></linearGradient><linearGradient id="linear-gradient-2" y1="108.54" x2="1015.06" y2="108.54" xlink:href="#linear-gradient"/><linearGradient id="linear-gradient-3" y1="110.2" x2="1015.06" y2="110.2" xlink:href="#linear-gradient"/><linearGradient id="linear-gradient-4" y1="101.41" x2="1015.06" y2="101.41" xlink:href="#linear-gradient"/><linearGradient id="linear-gradient-5" y1="109.67" x2="1015.06" y2="109.67" xlink:href="#linear-gradient"/><linearGradient id="linear-gradient-6" y1="52.42" x2="701.33" y2="52.42" xlink:href="#linear-gradient"/><linearGradient id="linear-gradient-7" y1="126.62" x2="1015.06" y2="126.62" xlink:href="#linear-gradient"/></defs><title>Untitled-1</title><g id="_Group_" data-name="&lt;Group&gt;"><path id="_Path_" data-name="&lt;Path&gt;" class="cls-1" d="M129.91,154.74c-1,1.52-1.87,3.07-2.71,4.66C128.59,158,129.63,157,129.91,154.74Z" transform="translate(-0.21 0.04)"/><path id="_Path_2" data-name="&lt;Path&gt;" class="cls-2" d="M191.53,109c-.68-.39-1.3-.77-1.83-1.09C189.7,109.7,190.88,109.15,191.53,109Z" transform="translate(-0.21 0.04)"/><path id="_Path_3" data-name="&lt;Path&gt;" class="cls-3" d="M198.7,110.28l.26-.17A.62.62,0,0,0,198.7,110.28Z" transform="translate(-0.21 0.04)"/><path class="cls-4" d="M257.11,113.82c-1.71-3.83-4.19-6.71-6.81-7.89-6.25-2.84-12.33-2.67-17.57.49-7.25,4.37-12.08,9.07-15.19,14.77a11.31,11.31,0,0,1-2.22-3.26,19,19,0,0,0-1.32-2.25l-.07-.1-.07.11c-.27.44-.72,1.17-.93,1.17h0s-.07,0-.11-.11c-2.56-4.16-6-3.86-9.28-3.58-2.13.18-4.34.38-6.36-.59a2.26,2.26,0,0,1,1.91-.32c.48.06.9.12,1.15-.13l0,0v0c0-.27-.29-.41-.63-.57s-.94-.44-.94-1a.25.25,0,0,1,.07-.17l.34-.4-.45.27c-2,1.21-4.7,0-6.88-1.2h.05a24.6,24.6,0,0,0,2.58-1.09,25.85,25.85,0,0,1,2.44-1l.36-.12-.38,0a28.27,28.27,0,0,0-5.61,0,46.92,46.92,0,0,0-16.42,5.14l-.39.21a1.64,1.64,0,0,1-1.89.19l-1-.59c-4-2.45-8.11-5-12.92-5.91a1.38,1.38,0,0,1-.93-.62,1.19,1.19,0,0,1,0-1,3.67,3.67,0,0,0,.13-.46c.11-.49.2-.85,1.05-.9,1.48-.09,4.28-3.57,4.49-5.19l0-.18c.14-1.13.3-2.41,1.08-3l.76-.53a8.65,8.65,0,0,0,3.43-3.54l.14-.23c.29-.48.66-1.07,1-1.09,1.84-.14,2-1.39,2.24-2.72a2.86,2.86,0,0,1,.58-1.2,33.24,33.24,0,0,0,3.19-6,40.68,40.68,0,0,1,2.51-5,8.09,8.09,0,0,1,4.23-3.79l.32-.13-.34,0c-.73-.07-1.17-.24-1.35-.52s-.05-.81.12-1.32l.09-.28a20.2,20.2,0,0,1,1.8-3.8,19.89,19.89,0,0,0,1.87-4,62.19,62.19,0,0,1,3.58-9.25c.15-.31.33-.61.5-.89.62-1,1.21-2,.49-3.46a1.46,1.46,0,0,1,.1-.93c.07-.15.12-.21.15-.21,1.66-.49,1.68-1.77,1.7-2.89,0-.3,0-.58,0-.85a41.88,41.88,0,0,0-.18-11.21c-1.77-11.25-6.5-18.15-14.88-21.72-5.77-2.46-10.39-3.37-15-3-5.79.52-10.62,1.08-15.6,3.1-6.24,2.53-11.41,4.71-16.33,7.91A363.9,363.9,0,0,0,94.67,42.4l-.84.7A118.63,118.63,0,0,0,81.63,54.27c-1.37,1.51-2.9,3-4.37,4.43-1.65,1.61-3.36,3.27-4.88,5A27.82,27.82,0,0,1,68.59,67a20.43,20.43,0,0,0-4.88,4.8c-.12.19-.45.27-.77.35a4.34,4.34,0,0,0-.45.13c-.46.17-.87.37-.9,1a4.57,4.57,0,0,1-1.46,2.78,8.19,8.19,0,0,0-1,1.37A8.11,8.11,0,0,1,57,79.66c-1.3,1.07-2.64,2.18-2.55,4.29a.76.76,0,0,1-.22.55.9.9,0,0,1-.61.29c-2.06,0-2.69,1.91-3,2.93a6.88,6.88,0,0,1-3,3.46l-.28.2-.26.18a5.77,5.77,0,0,1-1.92,1.05A2.11,2.11,0,0,0,43.42,95a3.18,3.18,0,0,1-1.21,3,5.83,5.83,0,0,0-1.14,2.3,12.18,12.18,0,0,0-.27,1.19c-.3,1.55-.59,3-2.9,3-.21,0-.4.28-.58.54l-.1.15c-.57.78-1.14,1.59-1.69,2.36l-.65.91,0,0c.22.29.5.17.72.07s.35-.15.46,0c.26.34.06.59-.17.88l-.18.23a5.36,5.36,0,0,1-1.28,1.18c-.74.56-1.45,1.08-1.46,1.91a2.81,2.81,0,0,1-.71,2.17,3.36,3.36,0,0,1-2.66.32c-.67-.09-1.08.1-1.24.59s.21.77.57.92l.22.09c1.08.51,1,1.37,1,2.29a4.84,4.84,0,0,0,0,1.17,1.06,1.06,0,0,1-.2.88.62.62,0,0,1-.52.23,2.69,2.69,0,0,0-2,.54c-.72.64-.83,1.72-.9,3,0,.73-.48.77-1,.82h0c-.65.06-1-.17-1.12-.73a2.3,2.3,0,0,1,0-.54,1.48,1.48,0,0,0-.43-1.33l-.1-.09,0,.13a17.3,17.3,0,0,0-.65,7.68,3,3,0,0,1-1.68,3.56,36.13,36.13,0,0,0-3.36,2.2c-.49.34-1,.7-1.5,1l-.14.09.15.06c1.85.67,2.78,1,3.07,1.62s-.06,1.55-.75,3.43l-.34.94-.23.63A13.5,13.5,0,0,1,16,149a1.4,1.4,0,0,1,.19-1.2,1.18,1.18,0,0,0-.08-1.55l0,0-.06,0a2.24,2.24,0,0,0-1.33,1.88,2.09,2.09,0,0,1-1.06,1.64,4.4,4.4,0,0,0-2.3,5.49,1,1,0,0,1-.07.45,2.53,2.53,0,0,0-1.87,1.21,2.76,2.76,0,0,1-1.63,1.2c-.69.11-1.15.43-1.24.84s.21.9.85,1.34a1.34,1.34,0,0,1,.61.79.62.62,0,0,1-.11.48,7.62,7.62,0,0,0-1,2.64c-.42,1.76-.82,3.42-3.11,3.95-.3.07-.47.76-.49.84-.25,1.09-.58,2.19-.89,3.26A28.47,28.47,0,0,0,1,178.77c0,.19,0,.38,0,.58A3.43,3.43,0,0,1,.23,182l0,0,0,1.91v0c1,2.59,2.57,4,4.95,4.19l1.78.16c2,.18,4.09.37,6.1.73,2.78.5,5.31-.33,8-2.63,2.11-1.84,4.3-3.65,6.42-5.41,2.93-2.44,6-5,8.85-7.57a83,83,0,0,0,10.25-10.64c2.34-3,4.54-6.23,6.66-9.33s4.31-6.29,6.65-9.31c5-6.42,7.7-14,10.06-21.31a105.35,105.35,0,0,0,5.23-28.15,6.21,6.21,0,0,0-4.24-6.58,19.38,19.38,0,0,1-2.74-1.25c-.54-.3-.83-.61-.88-.95a1.41,1.41,0,0,1,.56-1.12c1.71-1.69,3.29-3.55,4.82-5.35S75.6,76,77.2,74.35a335.44,335.44,0,0,1,29.16-26.5,206.22,206.22,0,0,1,32.12-21.54c10-5.29,18.06-8,26.17-8.67l.55,0c7.39-.64,8-.7,10,8.18,1.7,7.37-.18,14.57-2.24,21.32C168.9,60.52,162,74,151.89,88.19a12.38,12.38,0,0,1-.91,1.09,9.5,9.5,0,0,0-1.14,1.45,118.82,118.82,0,0,1-7.37,10.55c-.92,1.21-1.86,2.47-2.77,3.72a6,6,0,0,1-3.13,2.18c-1.41.47-2.88.81-4.3,1.15a37.11,37.11,0,0,0-6.1,1.82c-1,.42-1.92.93-2.84,1.42a27.14,27.14,0,0,1-3.64,1.73,65.32,65.32,0,0,0-15,8l-3.4,2.31c-6.81,4.6-13.84,9.36-20,15.1-.82.77-1.7,1.5-2.55,2.2a26,26,0,0,0-5.19,5.22,9.87,9.87,0,0,1-3,2.67l-.65.41c-1.92,1.22-3.91,2.49-4.14,5.24,0,.56-.47.72-1,.9l-.31.12c-2.36,1-3.23,2.77-2.53,5.13.16.53.11.56-.18.71l-.3.17a5.26,5.26,0,0,1-.7.33c-.61.25-1.31.54-1.41,1.1s.27,1.08,1.09,1.83a1.43,1.43,0,0,1,.55,1c0,.74-.77,1.46-1.45,2.09-.26.24-.5.47-.7.69a1.16,1.16,0,0,1-.9.5c-.53,0-1-.61-1.35-1.13l-.16-.22-.06-.07-.07.06c-2.21,2.08-3.28,4.71-4.31,7.26-.26.64-.53,1.3-.81,1.93-.57,1.3-1.16,2-1.84,2.11s-1.57-.3-2.7-1.38l-.07-.06-.06.07c-.15.19-.31.37-.46.55a2.36,2.36,0,0,0-.62,3,2.7,2.7,0,0,1-.41,2.53,2.21,2.21,0,0,1-1.47,1.14h0a2.47,2.47,0,0,0-1.84.51,2.37,2.37,0,0,0-.36,1.83c0,.19,0,.37,0,.56a8,8,0,0,1-.39,2.73c-.77,2.25,0,3.92,2.21,4.68a26.42,26.42,0,0,0,8.65,1.74,15,15,0,0,0,8.18-2.36,4.74,4.74,0,0,1,2.1-.87c2.67-.13,4.65-1.68,6.56-3.18,1.69-1.32,3.43-2.69,5.64-3.05.36-.06.65-.47.94-.87l.23-.31a5.25,5.25,0,0,1,2.34-1.81,9.32,9.32,0,0,0,3.88-2.56,6.48,6.48,0,0,1,3-1.67,7.59,7.59,0,0,0,4.72-4.31,1.25,1.25,0,0,0,.09-.38c0-.3.06-.54.52-.55,1.65,0,2-1.24,2.43-2.42l.09-.26c0-.11.07-.25.1-.4.07-.31.16-.7.33-.78a.23.23,0,0,1,.21,0c1.39.69,2.08-.05,2.75-.77a4.34,4.34,0,0,1,.79-.72,15.81,15.81,0,0,0,3.2-3,12.6,12.6,0,0,1,4.19-3.54.94.94,0,0,0,.53-.54c.32-1.87,1.77-2.55,3.17-3.2.32-.15.66-.31,1-.47l.32-.17c.8-.41,1.7-.88,1.67-1.42-.1-2,1.26-2.86,2.59-3.66a8,8,0,0,0,1.6-1.15c.3-.31.61-.59.92-.87a6.78,6.78,0,0,0,2.46-3.55c.11-.5.49-.71,1.06-1l.3-.16c1.12-.6,2.51-1.34,2.94-2.73a7.68,7.68,0,0,1,6.61-5.59c.74-.08,1.15-.38,1.11-.8-.15-1.55.9-1.74,2-1.93l.52-.1.15,0-.11-.11c-1.52-1.57-.69-2.51.2-3.51.17-.19.34-.39.5-.59a2,2,0,0,1,.69-.47c.42-.21.86-.43.83-.92a1.52,1.52,0,0,1,.26-1.19c.25-.24.65-.19,1.08-.15a1.93,1.93,0,0,0,1-.07c.39-.19.4-.7.41-1.2,0-.7,0-1.36.93-1.38a4.68,4.68,0,0,0,3.28-1.78,10.05,10.05,0,0,1,1.07-1c1.34-1,2.83-2.76,3-4.31a2,2,0,0,1,1.48-2l.22-.1c5-2.33,9.87-1.6,14.83,2.22l-.43.35c-.37.3-.72.58-1.08.86a136.2,136.2,0,0,0-10.4,8.89l0,.06c-2.78,4.37-5.92,9.33-10,10.56h0l0,0c-.5.59-1,1.21-1.56,1.86l0,0,0,0a8.31,8.31,0,0,0,1.61,2,11.32,11.32,0,0,0-4.59,1.67l0,0c-.57.75-1.14,1.51-1.7,2.26v0a4.58,4.58,0,0,0,.57,3.29,6.19,6.19,0,0,0-3.08.24h0l0,0c-.75,1.09-1.45,2.16-2.11,3.19v0c-.27,2.12-1.19,3.16-2.69,4.61l0,0c-.5.95-1,1.93-1.48,3v0a15.11,15.11,0,0,0,.57,4,2.94,2.94,0,0,0-2.32.59l-.15.09v0c-.18.54-.34,1.08-.49,1.61v.06a9.34,9.34,0,0,1-.08,9.14l0,0v0a9.3,9.3,0,0,0,1.93,3.2l0,0,.05,0c.3-.11.7-.26,1.1-.43a7.62,7.62,0,0,0,1.23,2.26l0,0a10.81,10.81,0,0,0,3.43,1.11,20.72,20.72,0,0,0,10.64-1.49l.51-.33c.9-.58,1.75-1.13,2.59-1.61a34.54,34.54,0,0,1,6-2.58c.85-.31,1.73-.62,2.59-1,2.26-1.22,4.5-2.51,6.67-3.87a11.62,11.62,0,0,0,2-2.57c.28-.56,1.46-.46,2.58-.48h0c1.28-.89,2.54-1.8,3.75-2.71h0l.4-.31c2.57-2,5.07-4,7.45-6.21a44.35,44.35,0,0,0,9-11c3.32-5.86,4.41-11.46,3.32-17.1A26.17,26.17,0,0,0,183,121.47l-.21-.24c-.25-.28-.5-.57-.44-.82s.27-.37.67-.52c5.74-2.25,11.94-3.92,18.46-.9a5.85,5.85,0,0,1,3.73,5.73,18.21,18.21,0,0,1-1.8,8.1c-1.45,3.31-3,6.66-4.4,9.9l-.91,2c-4.29,9.58-9.19,19.33-15,29.81-.64,1.16-.94,1.86-.69,2.28s1,.49,2.26.5l.42,0c.56,0,1-.08,1.36.53,1.46,2.83,3.86,2.71,6.17,2.59a16.93,16.93,0,0,1,2.22,0c.61.06,1-.46,1.33-1,.52-.85,1.06-1.71,1.58-2.55,3.38-5.41,6.88-11,7.79-17.6a8.37,8.37,0,0,1,1.57-3.42,6.74,6.74,0,0,0,1.55-4.17c1.64-.7,2.47-2,3.35-3.45.22-.35.44-.71.68-1.05,3.56-5.23,7.64-10.57,13.22-17.31,3.76-4.55,7.92-9.23,13.67-12.14,1.43-.72,2.26-.91,2.71-.61s.57,1.12.43,2.68a51.65,51.65,0,0,0,.35,10.1v0l0,0c1.19,1.27,2.87,1.1,4.49.94a10.73,10.73,0,0,1,2.64-.05h0l.71-.34,0,0v-1.05l1-.22c1.8-.36,3.66-.73,3.7-2.91h2.1v-1.6a2.28,2.28,0,0,1,.76-.19h.06v-.06C259.38,121.52,258.78,117.55,257.11,113.82ZM191.31,109c-.39.12-.87.26-1.18,0a1.21,1.21,0,0,1-.34-1l.33.2,1.21.72Zm-13.1,28.15a15.94,15.94,0,0,1-2.7,8.31,39.11,39.11,0,0,1-8.15,9.21,112.23,112.23,0,0,1-26.73,16.85,31.76,31.76,0,0,1-3.7,1.31c-.59.18-1.2.37-1.8.57-.79.27-1.33.28-1.58,0s-.27-.84,0-1.76a40.94,40.94,0,0,1,4.6-9.89,124.23,124.23,0,0,1,32.56-34.92,2.76,2.76,0,0,1,1.54-.67c.53,0,1,.33,1.58,1C176,129.74,178.19,132.93,178.21,137.11ZM57.52,99.36c-4.68,29-17.63,52.44-39.6,71.53a8.73,8.73,0,0,1,.77-5.4,8.29,8.29,0,0,0,.59-2.31,5.4,5.4,0,0,1,.81-2.54c1.26-1.62,2.31-3.12,2.43-5.18a.39.39,0,0,1,.21-.25c2.71-.5,2.87-2.42,3-4.27a9.59,9.59,0,0,1,.3-1.93l.13-.44a3.51,3.51,0,0,1,1.3-2.22c1.7-1.19,2.33-3,2.94-4.81a21.44,21.44,0,0,1,.8-2.09,198.84,198.84,0,0,1,23.67-37.78l.07-.09A7,7,0,0,1,57.52,99.36Zm-5,86.44c-.18-.11-.25-.34-.19-.66a3.38,3.38,0,0,0,0-.77c0-.74-.09-1.44,1-1.6h.13a2.33,2.33,0,0,1,.59.11,2.72,2.72,0,0,0,.62.12c.64,0,1-.17,1-.57a.65.65,0,0,0-.14-.5,1.27,1.27,0,0,0-.91-.27,3.12,3.12,0,0,0-.53,0c-.52.07-1,.14-1.16-.53a1.16,1.16,0,0,1,.31-1c.49-.42,1-.19,1.44.06l.4.19a2.36,2.36,0,0,0,2.35,0,2.42,2.42,0,0,0,.65-2.31c0-.1,0-.19,0-.28-.07-.42-.1-.6.53-.74a4.3,4.3,0,0,0,2.59-2.32,84.09,84.09,0,0,1,7.42-10c1.51-1.84,3.06-3.74,4.5-5.69,3.61-4.89,8.19-8.66,12.63-12.31.93-.77,1.92-1.51,2.87-2.23,1.31-1,2.66-2,3.9-3.1a24.8,24.8,0,0,1,5-3.19c1-.54,2.08-1.1,3.06-1.73,3.89-2.5,7.41-4.6,10.77-6.43.9-.49,1.78-1.05,2.62-1.6a17.7,17.7,0,0,1,6.63-3.06l.25-.05a1.08,1.08,0,0,1,1.06.15,60.81,60.81,0,0,1-5.16,5.93c-.76.8-1.55,1.63-2.3,2.46-6.41,7.07-13.21,14-20.23,20.65-7.27,6.87-15.06,14.12-23.35,20.63-1.84,1.44-3.79,2.81-5.69,4.13-1.55,1.08-3.15,2.2-4.68,3.35A10.51,10.51,0,0,1,57,184.18a10.88,10.88,0,0,0-3.51,1.49A.89.89,0,0,1,52.54,185.81Zm-4.79-2.2a3,3,0,0,0,.11-.32,2.42,2.42,0,0,0-.22-1.62,1.06,1.06,0,0,1-.06-1c.15-.24.51-.36,1.1-.38h.11a1,1,0,0,1,.84.3,1.11,1.11,0,0,1,.07,1c-.1.36-.22.72-.34,1.06s-.2.6-.29.91a1.53,1.53,0,0,1-.56,1,.7.7,0,0,1-.56,0,.52.52,0,0,1-.33-.24A1,1,0,0,1,47.75,183.6Z" transform="translate(-0.21 0.04)"/><path id="_Path_4" data-name="&lt;Path&gt;" class="cls-5" d="M199.65,109.45a3.9,3.9,0,0,1-.7.66,3.93,3.93,0,0,1,1.22-.13C200.18,109.45,200.18,108.93,199.65,109.45Z" transform="translate(-0.21 0.04)"/><g id="_Group_2" data-name="&lt;Group&gt;"><path id="_Path_5" data-name="&lt;Path&gt;" class="cls-6" d="M820.18,52.45l0,0-.08,0Z" transform="translate(-0.21 0.04)"/><path id="_Compound_Path_" data-name="&lt;Compound Path&gt;" class="cls-7" d="M867.37,159.67a3.15,3.15,0,0,0-1.12-2.22c-5.71-5.43-12.39-7.37-19.94-5.09a115,115,0,0,0-20.05,7.79c-6.94,3.61-14,7.07-21.54,9.24a48.55,48.55,0,0,1-15.44,2.18,7.27,7.27,0,0,1-6.38-3.88c-2.27-3.91-1-8-.4-12,1.14-7.93,5.18-14.87,8.18-22.14.91-2.2,1.53-4.72,2.85-6.53,3.06-4.21,4.77-9.07,7.39-13.44,1.05-1.76,2.35-3.77,5-3.47,1.12.12,1.63.08,1.33-1.55-.6-3.28-.26-6.82,1.82-9.41,1.81-2.26,2.5-5.07,4.28-7.14,1.36-1.59,2-4.19,4.67-4.36-.67-1-2.82-.12-2.16-2.15,1.22-3.77,2-7.7,4-11.17,1.57-2.65,2.31-6.15,5-7.69a4.91,4.91,0,0,0,2.78-4.48c0-5.55,3.26-9.69,5.59-14.17,1.85-3.55,4.32-6.81,5.9-10.52a51.33,51.33,0,0,1,8.5-13.59,19.84,19.84,0,0,0,2.41-3.67,90.54,90.54,0,0,1,6.41-10.62A3.14,3.14,0,0,0,856.1,5a29,29,0,0,0-4.95-3.82c-2.57-1.56-7.43-1.65-9.27,0a24.86,24.86,0,0,0-4,4.46C836.3,8,835,10.56,833.55,13s-2.43,5.49-4.49,7.24c-2.42,2.05-2.12,4.73-3.16,7.06a5.42,5.42,0,0,1-.45.64c-1.36,2.12-2.51,4.38-3.87,6.45s-1.78,4.28-2.83,6.34a.84.84,0,0,0-.91.68,1.13,1.13,0,0,0,0,.79c-.12.16-.25.32-.38.47-.56.64-1.66.88-1.74,1.81-.28,3.41-3,5.75-3.81,9a7.65,7.65,0,0,1-1.38,3.18,33.24,33.24,0,0,0-6.07,9.78c-2.36,6.67-5.61,12.9-8.64,19.24-.46,1-1.43,1.75-1.66,2.73a18.1,18.1,0,0,1-3,6.52c-2.62,3.61-3.92,7.89-6.15,11.72a103.54,103.54,0,0,0-6.17,13.46,23,23,0,0,1-7.87,10.3,22.16,22.16,0,0,0-3,2.45c-2.64,2.75-5.22,5.73-8.37,7.78-4.83,3.13-8.65,7.46-13.92,10.16-5.52,2.82-11,6-16.27,9.26a9.51,9.51,0,0,1-7.67,1.09c-2.62-.6-5.27-1.19-7.88-1.83-4.89-1.2-9.82-2.3-14.38-4.63-1.58-.81-2-1.66-1.37-3.3a13.37,13.37,0,0,1,3.38-4.58c4.36-4.38,10.22-4.41,15.75-5.36.74-.13,1,.52,1.44.9,2.11,1.79,1.71,4.56,2.8,6.93,1.93-.84,2.61-2.9,4-4.18.26-.23.17-1,0-1.51a13.46,13.46,0,0,0-13-9.74c-2.52-.06-5-.19-7.57-.28-7.89-.28-15,1.91-20.4,7.95-3.93,4.43-3.55,11.5,2.19,14.91,2,1.18,4.08,2.08,6.13,3.1,5.25,2.62,10.16,6,16.24,6.66.43,0,1,.22,1,.72s-.61.73-1.11.86c-5.5,1.46-11,3.26-16.73,1.18-.64-.23-1.8,0-1.75.65.21,2.63-1.89,2.36-3.3,2.69-2.71.62-5.55.73-8.22,1.49-8.14,2.32-16.38,2-24.65,1.19a5.92,5.92,0,0,1-4.14-1.68c2.47-1.45,5.21-1.18,7.66-2.07,4.23-1.53,8.17-3.11,11.22-6.94,3.21-4,9-5.53,11-11.1,1-2.71,1-6.14-1.24-8-2.81-2.35-6.41-3.12-9.69-4-6.07-1.57-12.22-.7-18.4.79a36.81,36.81,0,0,0-13.95,7.16c-2.24,1.72-3.75,4.83-7.38,4.1-.28-.06-.63.26-1,.39a20.79,20.79,0,0,0-7.18,4.89c-3.25,3.26-8,4.48-12.45,5.67-2.5.66-3.78-.4-4.63-2.53a20,20,0,0,1-.89-3c-.79-3.44.64-6.71.6-10.09a3.62,3.62,0,0,0-1.18-3c-2.62-2.35-5.84-3.08-9.17-3.47a5.51,5.51,0,0,0-5.8,3.72,73.1,73.1,0,0,1-7.22,15.25,25.58,25.58,0,0,1-5.57,6.53c-1.31,1.09-2.5,1.58-2.46-.92.08-5.58-4-9.15-9.43-9.73a5.44,5.44,0,0,1-1.7-.47c-3.57-1.58-8.06-2.45-11.25,1.07a37.48,37.48,0,0,1-9.61,7.35c-1.57.56-3.14,1.09-4.73,1.55a8.12,8.12,0,0,1-2.63-1,.82.82,0,0,0-.66-.17c-.24.09-.33.38-.43.62a2.85,2.85,0,0,1-1.71,1.4c-.71.26-1.47.38-2.17.65l-.2.09a28.82,28.82,0,0,1-8.86-.31,5.93,5.93,0,0,1-3.41-1.61,2.71,2.71,0,0,1-.52-1l1.46-.52a47.15,47.15,0,0,0,5.58-2.43,43.93,43.93,0,0,0,5.58-3.44,45,45,0,0,0,5.45-4.62,17.54,17.54,0,0,0,2.56-3.19,6.44,6.44,0,0,0,.88-2.51,4.18,4.18,0,0,0-.52-2.43,2.82,2.82,0,0,0,.06-1.4,4.75,4.75,0,0,0-2.27-2.54L530.73,140a7.29,7.29,0,0,0-5.35-1.53l-7.3-.06a37,37,0,0,0-6.55.34,13.56,13.56,0,0,0-4.65,1.63c-.42.12-.83.24-1.24.39a16.8,16.8,0,0,0-4,2.11,15.4,15.4,0,0,0-3.4,3.36,17,17,0,0,0-3.25,9,18.87,18.87,0,0,0,.41,5.27,10.36,10.36,0,0,1-1.47.45c-1.71.35-3.74,2.5-4.94,1.07-1.34-1.6.56-3.84,1.07-5.8.24-.91,1.8-1.51.8-2.68-.72-.84-1.59-1.95-2.53-2.11a10.79,10.79,0,0,1-3-1.39c-5.91-2.83-8.48-2-12.25,3.47a43.57,43.57,0,0,1-14.27,13.58c-1.72,1-2.41.8-3-1.3-1.45-5.28-.31-10.46,1.6-15.07,3.34-8.1,6.29-16.46,11.4-23.74,1-1.44.62-3.66,2.58-4.6a1,1,0,0,0,.21-.91c-.81-1-.18-1.32.64-1.69a2,2,0,0,0,1.15-2.12,3.71,3.71,0,0,1,.46-2.24c2.87-3.65,4.36-8,6.46-12.08,2.21-4.24,1.64-7.33-1.55-8.77-2.52-1.14-5-2.75-8-2.7a7.17,7.17,0,0,0-5.88,2.65c-4.47,5.21-8.56,10.68-12.53,16.3-3.16,4.48-6.55,8.87-9.9,13.24-5.7,7.44-11.1,15.11-17.26,22.18C421,151,416.58,155.58,412,160a96.93,96.93,0,0,1-19.59,14.94c-1.64.92-3.35,2.1-5.6,2.27.39-1.79,1.5-2.87,2.39-4.12,1.79-2.53,2.6-5.19,1.4-8.38-1.95-5.19-5.67-8.51-10.54-10.64a76.82,76.82,0,0,0-27.65-6c-12.14-.54-24.17.75-36.15,2.29-10.85,1.4-21.47,4.15-32.12,6.63-5.33,1.24-10.85,1.82-16,3.38a206.1,206.1,0,0,1-28.22,6.4c-1.23.19-3.08.74-3.63-.4s1.37-1.7,2.19-2.48c12.75-12.14,27.75-21.31,42-31.45,8.27-5.89,17.24-10.79,25.71-16.42,6.21-4.13,12.57-8.06,18.83-12.1,7.8-5,15.86-9.73,23.8-14.6,2.22-1.36,4.5-2.61,6.81-3.82.73-.38,2.28-1.08,2.19.2-.07,1.12.87,2.43-.26,3.55a1.07,1.07,0,0,0,.12,1.63,1.93,1.93,0,0,0,1.89.22,29.25,29.25,0,0,0,5.69-2.49c4.4-2.32,8.68-4.9,11.69-9,2.4-3.29,1.71-7-1.44-9.4-4.54-3.52-9.71-2.87-14.75-2.13-4.33.63-8.26,2.69-12.1,4.81-5.79,3.21-11.31,6.87-16.8,10.55-6.93,4.63-14.09,8.94-20.81,13.91-1.69,1.25-3.24,2.86-5,3.71a31,31,0,0,0-6.91,4.35c-2,1.68-4.21,3.17-6.32,4.68-4.47,3.2-10.12,4.76-13.21,9.85a1.07,1.07,0,0,1-.65.37c-4.71,1-8.18,4.18-12,6.74s-5.55,4.53-6.91,7.35a.74.74,0,0,1-1.1.34c-.46-.23-.92-.72-1.42-.33-2.69,2.1-6.39,2.25-8.9,4.74-4.66,4.61-10.42,7.79-15.62,11.7A108.82,108.82,0,0,0,218.53,164c-2.63,2.84-2.29,4.24,1.21,5.89,2.08,1,4.47.75,6.6,1.51,6.26,2.23,12.7,2.5,19.24,2,11.6-.85,22.74-4.22,34.09-6.37,8.12-1.53,16.16-3.45,24.27-5,14-2.71,28.19-3.42,42.42-3.37,8.23,0,16.5-.91,24.65,1.39,4.63,1.31,6,3.53,3.71,7.78a41.58,41.58,0,0,1-12.48,13.9c-8.24,6-16.76,11.71-26.16,15.91-6.14,2.75-12.06,5.94-18.25,8.65-16.49,7.21-33.28,13.64-49.94,20.41-6.51,2.65-13.11,5.08-19.74,7.43-9.11,3.23-17.86,7.3-26.75,11.06a2.54,2.54,0,0,0-1.62,3.54,4.58,4.58,0,0,0,3.68,3.26c2.26.53,4.61.66,6.89,1.1,3.51.68,6.61-.67,9.89-1.56,7-1.9,14.24-2.9,20.9-6.13,6.34-3.08,13.28-4.8,19.4-8.42a20.9,20.9,0,0,1,2.66-1.07c5.14-2.14,10.31-4.2,15.39-6.46C309.08,224.79,319.5,220,330,215.3c5.16-2.32,10.39-4.46,15.52-6.85,5.59-2.59,11.26-5,16.79-7.71,7.63-3.69,15.48-6.91,22.87-11.14,5.38-3.08,11.29-5.22,16.46-8.74.49-.33,1.05-.89,1.54-.85,2.09.18,3.67-1.1,5.16-2a142.8,142.8,0,0,0,28.23-23.15,16.11,16.11,0,0,1,3.29-3.08,41.27,41.27,0,0,0,.66,14.93c1.31,5.28,5.55,8.25,10.82,7.64a3.78,3.78,0,0,1,1.21.32c3.86,1,7.75,1.9,11.76,1.36,1.42-.19,3.48.28,3.7-2.17,0-.15.41-.38.61-.37,2.77.24,4.37-2.13,6.07-3.46a4.78,4.78,0,0,1,4.6-1.17A42.62,42.62,0,0,0,494,170.39a2.41,2.41,0,0,0,1.62-.55c1.25-.14,2.61-.33,4.08-.57a21.29,21.29,0,0,0,1.77,1.91,24.07,24.07,0,0,0,6.47,4.41,27.61,27.61,0,0,0,6.76,2.16,33.1,33.1,0,0,0,6.34.57,39.92,39.92,0,0,0,5.65-.49c.87-.16,1.72-.29,2.53-.5s1.59-.37,2.33-.61c1.06-.31,2.06-.65,3-1a103,103,0,0,0,18-7.8c1.82-1.39,4.29-.56,5.46,1.52a10.41,10.41,0,0,0,4.6,4.48c2,1,4.14,1.79,6.19,2.71,5.5,2.46,11.05,3.38,16.47,0a22.58,22.58,0,0,0,7.4-6.84c.74-1.16,1.42-1.38,2.76-.78,3.65,1.63,7.38,3.09,11.11,4.53a10.6,10.6,0,0,0,4.07.42c3.59-.08,7-1.42,10.62-1.32a8.68,8.68,0,0,0,5.62-1.82c2-1.66,2.92-1,4.14.68a19.81,19.81,0,0,0,9.8,7.27c4.56,1.61,9.05,3.38,13.89,4.22,4.2.73,8,1.91,12.56.5a19.66,19.66,0,0,1,14.7,1.09c5.4,2.78,10.63,1.68,15.91.38,5.52-1.35,10.63-3.94,16-5.8,1.86-.65,3.58-1.65,5.62-1.91,3.29-.42,6.8-.25,9.37-3.06.61-.67,1.67-.17,2.53-.17,3.54,0,5.78-2.45,5.06-5.87a2,2,0,0,1,1.09-2.49q4.83-3.13,9.59-6.36c7-4.78,14.14-9.5,21-15.41-.86,3.3-1.67,6-2.28,8.8-2.79,12.67,1.3,18.77,10.86,22.84A56.27,56.27,0,0,0,790.9,179c12.42,1.74,24.05-1.54,35.75-4.74a3,3,0,0,0,.85-.57c4.72-3.51,10.27-5.28,15.63-7.45.48-.2,1-.5,1.46-.07s.14,1.14-.1,1.67c-.49,1-1.18,2.29-.21,3.15,2,1.78,4,3.71,7.16,3.12,1.37-.26,2.77-.29,4.16-.42C862.1,173,867.84,166.17,867.37,159.67ZM828,31.52c.23-1.09.81-.44,1.33-.19a1.92,1.92,0,0,0,1,.2c2.08-.22,1.89.53.82,1.78-.52.61-.41,1.76-1.7,1.84-.49-.78,1.74-2.17-.73-2.22C827.81,32.91,827.85,32.07,828,31.52ZM815.43,51.35a9.36,9.36,0,0,1,3.71-1.16.94.94,0,0,0,1-.71c.08-.51-.22-.77-.73-.88-.69-.15-1.46-.43-1.41-1.26s1.23-.5,1.64-1c1.24-1.45,2.53.56,3.85-.11.43-.21.52.68.35,1.21-.66,2.06-1.56,3.94-3.62,5a1,1,0,0,1,.41,1.45,11.75,11.75,0,0,0-1,1.54c-.93,2.55-2.11,4.39-5.11,2a1.57,1.57,0,0,1,2,0c.74.45,1.15.14,1.28-.63a.88.88,0,0,0-.83-1.09,2.46,2.46,0,0,0-.78,0c-1.08.17-2.74.78-2.94-.49A3.91,3.91,0,0,1,815.43,51.35ZM513.22,156l-3.71,1.59a8.59,8.59,0,0,1-.69-2,7.82,7.82,0,0,1,2.35-7.47,11.5,11.5,0,0,0,1-.9l.3,0a2.59,2.59,0,0,0,1.22-.22,4.79,4.79,0,0,0,1.13-1.35q.72-.16,1.45-.26c.14.12.28.26.44.37.78.55,1.83.19,2.73-.12a11.91,11.91,0,0,1,1.39-.38l.3,0a6.42,6.42,0,0,1,3.22,1,2.78,2.78,0,0,1,1.12,3,4.24,4.24,0,0,1-1.53,1.76l-2,1.55-.18.15c-1.1.36-2.18.72-3.24,1.1C516.72,154.56,514.94,155.27,513.22,156Zm133.61,6.13c2.94-3.4,4.12-8.26,9.17-9.92,1.68-.55,1.27-2.77,2.34-4,1.32-1.56,6-2.42,7.45-.94.88.92.05,1.66-.4,2.3-3,4.32-6.68,8-11.53,10.32-2.16,1-4.37,1.95-6.55,2.92Z" transform="translate(-0.21 0.04)"/></g></g></svg>