<svg id="Layer_1" data-name="Layer 1" xmlns="http://www.w3.org/2000/svg" viewBox="0 0 234 234"><defs><style>.cls-1{fill:#fff;}</style></defs><title>DSp</title><circle class="cls-1" cx="117" cy="117" r="117"/><path d="M63,157.24a5,5,0,0,1-1.17-.13c-2.09-.87-4-2-5.08-4.12a19.3,19.3,0,0,1-.81-3q-2.11-7.13-4.25-14.24c-1.65-5.49-3.48-10.92-4.93-16.46-1.28-4.9-2.31-9.89-3.16-14.88a51.38,51.38,0,0,1-.2-16.65c1-6.53,3.36-12.61,6-18.6a47.07,47.07,0,0,1,6.39-11,36.51,36.51,0,0,1,8-7.68C67.55,48,69.93,44.7,72.06,41a21.15,21.15,0,0,1,10.34-9.51,14.31,14.31,0,0,1,7.18-1,32.07,32.07,0,0,0,7.67-.38,24.9,24.9,0,0,1,6.55.2,54.75,54.75,0,0,0,9.41.87,26.09,26.09,0,0,1,4.69.5c2.38.36,4.76.78,7.13,1.2a26.75,26.75,0,0,1,6.59,2.45c3.67,1.71,7.4,3.33,11.14,4.89a16.64,16.64,0,0,1,6.72,5.12A29.14,29.14,0,0,0,162.63,55a18.29,18.29,0,0,1,6.8,3.92A8.64,8.64,0,0,1,172,64.93c.07,1.42.18,2.84.35,4.26a7.48,7.48,0,0,0,2.68,4.8c2.26,2,4.24,4.41,6.32,6.65,1.07,1.16,2.12,2.34,3.16,3.53a11,11,0,0,0,7.11,3.45c.78.11,1.73.12,2,1s-.36,1.71-1,2.37a18.23,18.23,0,0,1-6.47,4.28c-2.57,1.06-5.23,1.9-7.89,2.72a6.88,6.88,0,0,1-5.55-.85c-2.57-1.48-5.06-3.13-7.6-4.66-1.19-.72-2.43-1.36-3.66-2a2.48,2.48,0,0,0-2.87.16,3.35,3.35,0,0,1-3.43.39c-3.07-1.17-6.13-2.35-9.21-3.49a31.28,31.28,0,0,0-17.55-1.39c-2.76.57-5.49,1.28-8.25,1.82a9.58,9.58,0,0,1-2.91,0c-1.57-.19-3.11-.57-4.68-.73a1.53,1.53,0,0,0-1.25.65,25.14,25.14,0,0,0-1.76,4.66,49.75,49.75,0,0,0-1.05,10.14c0,2.24-1.59,3.62-3.36,4.57-3.05,1.64-6.19,3.12-9.32,4.6a6.16,6.16,0,0,0-3.63,4.94c-.27,1.77-.51,3.55-.66,5.33-.28,3.23-1.87,5.86-3.75,8.36-1.21,1.61-2.44,3.2-3.63,4.83-.9,1.24-.8,1.37.23,2.62a33.81,33.81,0,0,0,9.52,8.2,21,21,0,0,1,3.34,2.19q3.91,3.35,7.67,6.88a53.23,53.23,0,0,0,9.84,7.88,31,31,0,0,0,9,3,25.71,25.71,0,0,1,3.45,1.07,1.61,1.61,0,0,0,2.1-.56,76.15,76.15,0,0,1,5.4-6.37,14.45,14.45,0,0,1,11.46-4.36,2.55,2.55,0,0,1,2.28,1.45,14.51,14.51,0,0,1,1.82,7.3,2.7,2.7,0,0,1,0,.46c-.36,1.9-.9,2.84-2.72,1.33a6.7,6.7,0,0,0-6.23-1.29c-3.06.7-6.14,1.29-8.76,3.16-2.05,1.47-3.4,3.34-3,6a6,6,0,0,0,4.71,4.85,2.09,2.09,0,0,0,2.5-1.3c1-1.76,4-3,5.84-2.31a1.65,1.65,0,0,1,.8,1.29c-.1,3-.21,6-.51,9a20.24,20.24,0,0,1-2.32,7.41,18.37,18.37,0,0,1-11.55,9.28,45.52,45.52,0,0,1-7.36,1.44c-2.4.28-4.64-.61-6.79-1.62A54.43,54.43,0,0,1,101.57,193,95.3,95.3,0,0,1,85.7,174.17a67.84,67.84,0,0,1-7.65-14.83,21.37,21.37,0,0,1-1.14-6.74c0-4.33.39-8.65.61-13a45.69,45.69,0,0,0-.16-10.1,12.63,12.63,0,0,0-4-7.26c-4.4-4.1-9.45-6.78-15.51-7.27-4.29-.35-7.09,2.34-7.12,6.65A30.07,30.07,0,0,0,53,132.19c1.64,4.48,3.45,8.9,5.13,13.36.94,2.49,1.72,5,2.68,7.52a26.15,26.15,0,0,0,1.63,3C62.6,156.4,62.75,156.72,63,157.24Z"/><path d="M112.34,117.34c1.85-.3,3.71-.63,5.57-.89a52.23,52.23,0,0,1,11-.76A46.8,46.8,0,0,1,141,118.44c.73.26.85.82.82,1.48a1.08,1.08,0,0,1-1,1.13,15.32,15.32,0,0,1-3.5.23c-3.25-.4-6.47-1-9.71-1.48-4.74-.7-9.49-1.37-14.23-2.06l-1-.13Z"/><path d="M117.1,125.63h1c3.22.06,6.44.18,9.65.15,1.66,0,3.32-.33,5-.51a7.67,7.67,0,0,1,1.11-.06c.57,0,.77.31.55.87a5.43,5.43,0,0,1-5.94,3.54C125.7,129.25,119.28,127.12,117.1,125.63Z"/><path d="M148.47,155.18A31.35,31.35,0,0,0,151.8,154a4.39,4.39,0,0,0,2.58-4.88,21.38,21.38,0,0,0-2.37-7.38c-1.66-3.42-3.37-6.82-5-10.24a8.68,8.68,0,0,1-.68-5.9c.12.77.27,1.54.36,2.32.37,3.14,1.81,5.88,3.27,8.61,1.81,3.41,3.86,6.72,4.9,10.48a13.65,13.65,0,0,1,.38,3.84,3.62,3.62,0,0,1-1.54,2.65A8,8,0,0,1,148.47,155.18Z"/><path d="M149.39,122.61a7.17,7.17,0,0,1-.82-.09c-.6-.13-.82-.56-.45-1,1.16-1.44,2.36-2.9,4.36-3.15a1.66,1.66,0,0,1,1.29.43,1.52,1.52,0,0,1,0,1.27C153,122,151.36,122.61,149.39,122.61Z"/><path d="M59.46,119.27c-.26,0-.51.1-.77.13-2.73.25-4,1.54-3.71,4.27.18,2,.64,3.9,1,5.84.12.66.3,1.3.39,2a24.19,24.19,0,0,1-2.59-9.1c-.11-2,.75-3.32,3-3.51.9-.08,1.8,0,2.71,0Z"/><path d="M63.7,136.77c-2.65-.31-3.91-2.07-3.42-4.39a7.19,7.19,0,0,1,3.21-4.45l.22.16a14.14,14.14,0,0,0-.86,1.14,15.86,15.86,0,0,0-1.32,2.33A3.43,3.43,0,0,0,62.75,136Z"/><path d="M74.42,149.24a2.54,2.54,0,0,1-2.3,2,8.16,8.16,0,0,1-4.85-1.83C71.39,150.43,71.67,150.55,74.42,149.24Z"/><path d="M120.46,123.17c2-.86,8-1.08,10.31,0Z"/><path d="M140.8,153.44a8.89,8.89,0,0,1,6.46.38A19.56,19.56,0,0,1,140.8,153.44Z"/><path d="M145.77,166.41c-3.34-1-6.38.53-9.54,1C141.16,165.52,144.72,165.12,145.77,166.41Z"/><path d="M134.47,149.88c-.35,2.3-.28,4.27,2.63,4.87a2.66,2.66,0,0,1-3-.88A3.78,3.78,0,0,1,134.47,149.88Z"/><path d="M142.22,171.25l-3.65-.21v-.12h3.65Z"/></svg>